<?xml version="1.0" standalone="no"?>
<!DOCTYPE svg PUBLIC "-//W3C//DTD SVG 20010904//EN"
 "http://www.w3.org/TR/2001/REC-SVG-20010904/DTD/svg10.dtd">
<svg version="1.0" xmlns="http://www.w3.org/2000/svg"
 width="260.000000pt" height="260.000000pt" viewBox="0 0 260.000000 260.000000"
 preserveAspectRatio="xMidYMid meet">
<metadata>
Created by potrace 1.11, written by Peter Selinger 2001-2013
</metadata>
<g transform="translate(0.000000,260.000000) scale(0.100000,-0.100000)"
fill="#000000" stroke="none">
<path d="M0 1300 l0 -1300 1300 0 1300 0 0 1300 0 1300 -1300 0 -1300 0 0
-1300z m1221 690 c10 -6 19 -20 19 -30 0 -19 8 -20 212 -20 284 0 258 28 258
-283 l0 -239 -30 -28 c-21 -19 -30 -37 -30 -59 l0 -31 -115 0 -115 0 0 -60 0
-60 34 0 c37 0 46 -12 46 -61 l0 -29 -176 0 -175 0 3 43 c3 39 5 42 36 45 l32
3 0 60 0 59 -110 0 -110 0 0 31 c0 21 -9 38 -29 54 -16 14 -31 38 -34 55 -5
21 -12 30 -27 30 -18 0 -20 6 -20 70 0 63 2 70 20 70 19 0 20 7 20 120 0 121
12 178 41 196 7 4 29 10 49 14 24 4 36 11 39 25 2 11 8 23 15 27 17 11 125 9
147 -2z m-991 -1034 c0 -11 -14 -16 -47 -18 l-48 -3 0 -75 0 -75 95 0 95 0 5
39 c7 57 30 59 30 3 0 -64 -14 -72 -130 -72 -128 0 -132 3 -128 109 l3 81 35
12 c49 17 90 16 90 -1z m684 -5 c21 -17 21 -84 1 -101 -10 -8 -56 -15 -115
-18 l-99 -5 -3 -35 c-2 -20 -9 -37 -15 -40 -10 -3 -13 23 -13 108 l0 113 114
-5 c74 -3 120 -9 130 -17z m586 4 c0 -10 -10 -15 -34 -15 -62 0 -66 -5 -66
-80 0 -79 1 -80 95 -80 87 0 95 4 95 51 0 32 3 39 20 39 17 0 20 -7 20 -50 0
-64 -12 -70 -132 -70 -130 0 -138 7 -138 110 0 70 2 81 22 94 30 21 118 22
118 1z m200 -95 c0 -103 -1 -110 -20 -110 -19 0 -20 7 -20 110 0 103 1 110 20
110 19 0 20 -7 20 -110z m-1087 41 c23 -19 23 -113 1 -132 -23 -19 -175 -19
-197 0 -12 9 -17 29 -17 67 0 73 19 86 121 82 45 -2 83 -9 92 -17z m457 9 c0
-5 -10 -10 -22 -10 -39 0 -47 -13 -50 -80 -4 -87 -22 -83 -26 6 -3 65 -1 71
20 82 29 14 78 15 78 2z m246 -15 c18 -24 18 -96 0 -120 -12 -17 -27 -20 -99
-20 -106 0 -117 8 -117 85 0 72 14 81 123 77 65 -2 81 -6 93 -22z m638 9 c9
-8 16 -31 16 -50 l0 -34 -98 0 c-54 0 -102 -3 -105 -7 -14 -14 17 -33 54 -33
28 0 39 -4 39 -15 0 -20 -88 -21 -116 -1 -28 21 -28 121 0 142 29 21 189 20
210 -2z m257 6 c16 -9 19 -22 19 -85 0 -60 -3 -75 -15 -75 -12 0 -15 13 -15
59 0 75 -9 83 -97 79 l-68 -3 -3 -67 c-3 -60 -5 -68 -22 -68 -18 0 -20 7 -20
69 0 61 3 72 22 85 26 19 167 22 199 6z m270 0 c16 -9 19 -22 19 -85 0 -60 -3
-75 -15 -75 -11 0 -15 13 -15 53 0 79 -11 89 -95 85 l-70 -3 -3 -67 c-3 -60
-5 -68 -22 -68 -18 0 -20 7 -20 69 0 61 3 72 22 85 26 19 167 22 199 6z"/>
<path d="M1090 1950 c0 -18 7 -20 60 -20 53 0 60 2 60 20 0 18 -7 20 -60 20
-53 0 -60 -2 -60 -20z"/>
<path d="M1320 1910 c-18 -18 -20 -33 -20 -180 0 -212 -12 -200 195 -200 152
0 156 1 180 25 24 23 25 28 25 175 0 147 -1 152 -25 175 -24 24 -28 25 -180
25 -142 0 -157 -2 -175 -20z m348 -12 c17 -17 17 -319 0 -336 -15 -15 -315
-17 -338 -2 -21 13 -22 308 -1 333 11 15 37 17 170 17 109 0 161 -4 169 -12z"/>
<path d="M1364 1857 c-2 -7 -3 -69 -2 -138 l3 -124 129 -3 c97 -2 131 1 137
10 9 13 10 233 1 256 -6 18 -261 17 -268 -1z m209 -55 c54 -51 23 -160 -52
-177 -61 -13 -131 43 -131 105 0 36 30 81 63 95 41 18 85 10 120 -23z"/>
<path d="M1474 1800 c-27 -10 -54 -48 -54 -73 0 -10 14 -32 30 -49 25 -24 36
-29 58 -23 43 10 62 34 62 75 0 54 -48 89 -96 70z m50 -46 c9 -8 16 -19 16
-24 0 -13 -30 -40 -44 -40 -17 0 -36 21 -36 40 0 19 19 40 36 40 7 0 20 -7 28
-16z"/>
<path d="M1480 1730 c0 -5 7 -10 15 -10 8 0 15 5 15 10 0 6 -7 10 -15 10 -8 0
-15 -4 -15 -10z"/>
<path d="M984 1896 c-18 -14 -19 -28 -19 -240 0 -203 2 -227 18 -243 16 -16
45 -18 320 -21 166 -2 312 0 324 3 38 9 53 33 53 83 l0 47 -173 -3 c-233 -4
-220 -14 -222 184 -1 82 2 161 6 177 l8 27 -148 0 c-111 0 -152 -3 -167 -14z
m266 -161 l0 -115 -110 0 -110 0 0 115 0 115 110 0 110 0 0 -115z m-56 -146
c56 -44 21 -133 -51 -127 -50 4 -80 44 -67 90 9 32 42 58 75 58 9 0 28 -9 43
-21z m406 -114 c0 -12 -18 -15 -105 -15 -96 0 -117 5 -98 23 3 4 51 7 105 7
80 0 98 -3 98 -15z"/>
<path d="M1040 1790 c0 -16 5 -30 10 -30 6 0 10 14 10 30 0 17 -4 30 -10 30
-5 0 -10 -13 -10 -30z"/>
<path d="M1070 1735 l0 -85 75 0 75 0 0 85 0 85 -75 0 -75 0 0 -85z"/>
<path d="M1040 1679 c0 -17 4 -28 10 -24 6 3 10 17 10 31 0 13 -4 24 -10 24
-5 0 -10 -14 -10 -31z"/>
<path d="M1106 1574 c-25 -25 -20 -71 10 -90 55 -37 117 25 80 80 -19 30 -65
35 -90 10z m65 -4 c21 -12 25 -50 7 -68 -39 -39 -100 17 -63 58 21 23 29 24
56 10z"/>
<path d="M1124 1545 c-8 -21 2 -45 19 -45 20 0 40 27 33 45 -7 19 -45 20 -52
0z"/>
<path d="M920 1540 c0 -29 4 -40 15 -40 11 0 15 11 15 40 0 29 -4 40 -15 40
-11 0 -15 -11 -15 -40z"/>
<path d="M1030 1355 l0 -25 110 0 c91 0 110 3 110 15 0 12 14 15 70 15 56 0
70 -3 70 -15 0 -12 19 -15 115 -15 l115 0 0 25 0 25 -295 0 -295 0 0 -25z"/>
<path d="M1270 1265 c0 -69 3 -85 15 -85 12 0 15 16 15 85 0 69 -3 85 -15 85
-12 0 -15 -16 -15 -85z"/>
<path d="M1350 1265 c0 -69 3 -85 15 -85 12 0 15 16 15 85 0 69 -3 85 -15 85
-12 0 -15 -16 -15 -85z"/>
<path d="M1204 1135 c28 -21 213 -20 240 0 18 13 5 15 -120 15 -124 -1 -137
-2 -120 -15z"/>
<path d="M700 900 l0 -40 99 0 c91 0 100 2 106 20 3 11 3 29 0 40 -6 18 -15
20 -106 20 l-99 0 0 -40z"/>
<path d="M450 893 c-22 -9 -30 -24 -30 -58 0 -48 13 -58 78 -63 82 -6 102 7
102 63 0 34 -5 47 -19 55 -21 11 -105 12 -131 3z"/>
<path d="M1143 890 c-18 -7 -23 -17 -23 -47 0 -56 11 -66 78 -71 82 -6 102 7
102 63 0 34 -5 47 -19 55 -24 12 -107 12 -138 0z"/>
<path d="M1772 878 c-23 -23 -11 -28 74 -28 76 0 85 2 82 18 -3 14 -16 18 -73
20 -46 2 -74 -1 -83 -10z"/>
</g>
</svg>
